<?xml version="1.0" standalone="no"?>
<!DOCTYPE svg PUBLIC "-//W3C//DTD SVG 20010904//EN"
 "http://www.w3.org/TR/2001/REC-SVG-20010904/DTD/svg10.dtd">
<svg version="1.0" xmlns="http://www.w3.org/2000/svg"
 width="805.000000pt" height="805.000000pt" viewBox="0 0 805.000000 805.000000"
 preserveAspectRatio="xMidYMid meet">
<metadata>
Created by potrace 1.11, written by Peter Selinger 2001-2013
</metadata>
<g transform="translate(0.000000,805.000000) scale(0.100000,-0.100000)"
fill="#000000" stroke="none">
<path d="M1448 7259 c-20 -3 -48 -5 -62 -4 -14 0 -26 -2 -26 -5 0 -3 -8 -6
-17 -6 -40 -2 -165 -34 -223 -58 -19 -8 -50 -20 -67 -28 -18 -7 -33 -16 -33
-20 0 -5 -5 -8 -11 -8 -23 0 -147 -97 -194 -152 -80 -93 -149 -233 -171 -347
-3 -14 -7 -27 -9 -31 -13 -21 -20 -162 -19 -400 2 -256 4 -328 20 -595 3 -55
7 -129 9 -165 1 -36 6 -135 11 -220 4 -85 7 -256 7 -380 1 -243 -8 -301 -58
-405 -30 -61 -127 -165 -154 -165 -5 0 -11 -3 -13 -7 -9 -21 -177 -83 -263
-98 -39 -6 -135 -18 -157 -19 -16 0 -18 -13 -18 -118 0 -132 -5 -124 80 -132
30 -3 69 -8 85 -11 90 -17 136 -29 141 -37 3 -4 12 -8 21 -8 17 0 124 -52 149
-73 86 -69 155 -176 170 -262 2 -11 7 -36 11 -55 14 -68 8 -472 -13 -825 -2
-38 -6 -108 -8 -155 -3 -47 -8 -148 -12 -225 -11 -193 -11 -689 -1 -750 35
-204 109 -358 229 -471 44 -42 142 -112 144 -104 1 3 10 -2 20 -11 38 -33 207
-88 324 -105 19 -3 49 -7 65 -10 17 -3 83 -7 147 -10 l117 -6 -2 113 c-2 123
4 112 -69 124 -131 20 -276 80 -369 154 -39 30 -119 127 -119 144 0 2 -8 22
-17 43 -19 44 -19 44 -36 142 -16 94 -12 462 7 582 3 14 7 56 11 93 3 37 8 77
10 87 2 10 6 47 9 82 4 35 8 73 10 85 3 12 7 53 11 90 3 37 8 82 10 98 26 181
40 601 23 715 -48 334 -259 590 -551 670 -35 9 -47 17 -45 29 2 9 8 16 13 17
6 0 17 3 25 7 8 3 38 13 65 23 263 94 432 309 490 624 12 68 13 415 1 515 -2
17 -7 72 -10 123 -4 51 -9 101 -11 111 -3 17 -8 55 -20 171 -8 70 -16 142 -20
170 -2 14 -7 63 -10 110 -4 47 -8 87 -10 91 -9 13 -18 234 -17 394 1 242 35
362 134 466 84 89 196 145 367 181 53 11 101 22 108 24 9 2 12 35 12 109 l0
106 -92 -3 c-51 -1 -109 -5 -129 -9z"/>
<path d="M6369 7259 c-3 -8 -4 -57 -3 -109 l1 -95 64 -12 c197 -36 334 -101
414 -197 71 -85 110 -185 122 -311 11 -117 5 -424 -12 -620 -2 -22 -6 -71 -9
-110 -10 -148 -18 -241 -21 -275 -2 -19 -7 -75 -10 -125 -4 -49 -9 -110 -11
-135 -2 -25 -6 -146 -9 -270 -4 -241 4 -325 46 -450 24 -72 69 -167 103 -214
41 -60 142 -154 206 -193 76 -46 210 -101 233 -95 4 1 7 -6 7 -16 0 -14 -15
-23 -57 -36 -32 -10 -94 -37 -138 -59 -96 -51 -223 -170 -279 -265 -39 -65
-95 -211 -103 -272 -3 -19 -9 -53 -13 -75 -9 -39 -5 -446 5 -555 8 -91 14
-170 21 -255 3 -44 8 -100 10 -125 2 -25 6 -79 9 -120 3 -41 7 -102 10 -135
25 -335 25 -552 0 -705 -4 -26 -15 -53 -51 -127 -71 -145 -242 -249 -472 -288
-55 -9 -57 -10 -62 -17 -3 -3 -5 -53 -4 -110 l0 -103 90 1 c78 0 136 5 234 19
22 3 81 17 133 30 9 3 26 7 37 9 10 3 40 14 66 25 26 12 53 21 60 21 8 0 14 5
14 10 0 6 6 10 13 10 20 0 138 83 192 136 111 107 188 264 219 444 6 38 18
199 18 240 -3 194 -14 436 -27 615 -3 39 -7 108 -10 155 -2 47 -7 115 -10 150
-3 36 -8 106 -11 155 -2 50 -7 124 -9 165 -3 41 -6 152 -6 245 -2 194 4 247
34 331 39 108 70 148 192 242 14 11 103 48 156 66 63 20 145 37 214 42 91 7
86 -1 83 130 -3 131 6 119 -93 129 -116 11 -213 38 -310 85 -158 78 -235 188
-271 390 -12 68 -6 411 11 620 3 36 8 108 11 160 3 52 7 118 9 145 2 28 7 97
10 155 3 58 8 123 10 145 3 32 17 453 17 490 -1 45 -13 195 -17 215 -3 14 -7
37 -9 51 -7 46 -44 156 -72 211 -54 106 -134 203 -214 258 -19 13 -37 27 -40
30 -19 21 -221 103 -280 114 -14 2 -32 7 -40 10 -34 12 -142 24 -291 32 -85 5
-107 4 -110 -7z"/>
<path d="M4087 6864 c-1 -1 -54 -5 -117 -8 -63 -3 -131 -8 -150 -10 -19 -3
-62 -7 -95 -11 -32 -4 -62 -8 -65 -10 -3 -1 -29 -6 -59 -9 -73 -9 -214 -40
-303 -67 -40 -12 -78 -23 -84 -25 -36 -7 -263 -103 -344 -146 -101 -54 -270
-166 -270 -180 0 -4 -5 -8 -10 -8 -16 0 -172 -158 -227 -230 -49 -64 -114
-171 -146 -241 -22 -48 -84 -236 -91 -274 -3 -16 -8 -43 -12 -58 -19 -88 -27
-183 -27 -312 0 -93 8 -240 13 -240 1 0 3 -11 5 -25 27 -192 111 -394 223
-535 53 -68 99 -120 137 -155 87 -82 107 -100 114 -100 3 0 21 -14 40 -30 18
-17 40 -30 47 -30 8 0 14 -4 14 -10 0 -5 6 -10 14 -10 8 0 16 -4 18 -8 4 -12
174 -105 228 -126 25 -10 55 -24 67 -31 11 -8 32 -17 45 -19 12 -3 61 -19 108
-36 47 -16 126 -41 175 -55 50 -14 115 -33 145 -42 30 -9 63 -18 75 -19 11 -2
46 -10 78 -19 61 -17 233 -55 310 -69 25 -5 261 -55 292 -62 11 -3 32 -6 47
-9 15 -2 35 -6 45 -9 10 -3 32 -8 48 -10 17 -3 71 -15 120 -26 50 -11 101 -22
115 -25 14 -2 45 -10 70 -18 39 -13 71 -22 115 -33 29 -7 209 -76 269 -103 77
-35 181 -96 210 -123 11 -10 23 -18 28 -18 8 0 122 -112 153 -150 53 -67 91
-180 101 -300 8 -85 8 -74 0 -160 -12 -130 -22 -177 -63 -285 -51 -133 -181
-303 -299 -391 -21 -16 -41 -32 -44 -35 -12 -16 -182 -108 -260 -141 -140 -59
-343 -122 -432 -133 -15 -2 -55 -9 -90 -15 -35 -7 -81 -14 -103 -16 -22 -2
-50 -6 -62 -8 -53 -11 -262 -20 -428 -19 -209 0 -282 7 -435 37 -105 21 -119
24 -143 32 -12 5 -26 8 -32 9 -5 1 -17 4 -25 7 -8 3 -44 16 -80 28 -115 40
-314 139 -385 192 -153 114 -247 205 -335 323 -66 88 -152 236 -178 305 -36
96 -73 205 -77 232 -3 17 -8 34 -10 38 -19 31 -46 280 -48 438 l-2 163 -35 -5
c-19 -3 -53 -8 -75 -11 -38 -5 -55 -8 -156 -20 -54 -7 -56 -8 -64 -58 -4 -23
-9 -51 -11 -62 -9 -44 -16 -81 -19 -105 -8 -55 -17 -108 -30 -175 -13 -68 -34
-190 -40 -230 -2 -11 -6 -36 -10 -55 -3 -19 -13 -73 -21 -120 -19 -112 -23
-130 -29 -160 -3 -14 -8 -41 -11 -60 -2 -19 -7 -46 -10 -60 -2 -14 -7 -38 -10
-55 -2 -16 -9 -55 -15 -85 -6 -30 -12 -68 -15 -85 -2 -16 -6 -41 -9 -55 -3
-14 -8 -41 -11 -60 -3 -19 -7 -46 -10 -60 -2 -14 -7 -41 -10 -60 -3 -19 -7
-42 -9 -50 -3 -8 -7 -33 -10 -55 -8 -50 -13 -83 -20 -115 -8 -38 -24 -130 -31
-174 -3 -21 -8 -48 -10 -60 -2 -11 -7 -38 -10 -59 l-7 -38 163 3 162 3 23 40
c13 22 30 51 38 65 8 14 26 48 42 75 87 156 226 252 345 237 43 -5 128 -46
163 -78 14 -13 30 -24 36 -24 5 0 11 -4 13 -8 4 -12 125 -92 137 -92 6 0 11
-4 11 -10 0 -5 4 -10 9 -10 4 0 41 -18 82 -41 41 -22 74 -39 74 -38 0 1 23 -8
50 -20 94 -42 348 -122 435 -137 20 -4 56 -11 90 -19 6 -2 108 -17 135 -21 11
-1 34 -5 50 -7 37 -7 165 -19 226 -22 25 -1 50 -4 55 -6 5 -3 113 -4 239 -4
251 2 372 9 548 34 66 10 84 13 150 25 390 74 725 216 1001 425 81 61 242 224
294 296 32 45 92 137 92 141 0 2 11 21 24 42 12 20 24 40 25 44 1 4 11 29 22
55 27 61 69 183 64 183 -3 0 0 11 5 26 11 28 16 54 35 174 13 83 13 391 1 470
-52 323 -195 575 -451 795 -65 55 -237 162 -365 227 -117 58 -493 196 -583
212 -12 3 -22 5 -22 6 0 1 -7 3 -15 5 -8 2 -76 19 -150 39 -74 19 -198 49
-275 66 -77 17 -156 35 -175 40 -19 5 -71 17 -114 25 -44 9 -82 17 -85 19 -3
2 -23 7 -43 10 -21 3 -59 11 -85 17 -27 6 -59 13 -73 15 -14 3 -33 7 -42 10
-9 3 -25 7 -35 9 -59 12 -202 52 -318 91 -402 132 -627 321 -660 554 -8 56 -8
153 0 228 28 261 159 496 360 647 28 21 52 40 55 44 12 15 235 129 264 136 6
1 18 5 26 8 30 11 196 57 229 62 19 3 37 7 40 9 3 2 29 7 56 10 60 8 111 16
145 21 14 3 75 8 135 11 246 16 535 4 683 -27 26 -5 58 -11 72 -13 36 -5 162
-36 185 -46 11 -5 43 -16 70 -25 87 -27 287 -133 370 -195 99 -74 202 -176
265 -260 49 -67 140 -214 140 -228 0 -5 11 -30 24 -58 13 -27 34 -83 46 -124
13 -41 25 -82 28 -90 8 -23 8 -21 16 -80 5 -30 10 -64 12 -74 13 -69 17 -143
18 -306 2 -207 -5 -192 76 -176 19 4 44 8 55 10 19 4 44 9 105 21 14 3 40 8
58 11 37 7 45 16 48 58 2 17 5 42 9 56 3 14 8 39 10 55 3 17 12 66 20 110 8
44 17 96 21 115 14 87 25 144 49 275 14 77 28 156 31 175 3 19 14 85 25 145
26 141 41 225 44 250 2 11 10 58 19 105 8 47 18 101 21 120 3 19 8 43 11 53 3
10 8 35 10 55 2 20 12 82 23 137 10 55 22 118 25 140 3 22 8 51 11 65 16 78
27 70 -98 70 -110 0 -112 -1 -134 -28 -24 -30 -42 -52 -113 -132 -72 -82 -98
-110 -105 -110 -4 0 -20 -9 -36 -21 -40 -28 -117 -48 -176 -44 -48 3 -155 43
-204 76 -14 10 -37 21 -52 24 -15 4 -29 11 -32 15 -5 8 -41 26 -185 92 -223
102 -489 188 -662 213 -21 3 -53 7 -70 10 -134 19 -246 26 -456 29 -101 1
-184 1 -185 0z"/>
<path d="M3718 3265 c-36 -96 -63 -176 -59 -176 12 -3 46 -8 86 -14 51 -7 80
-13 80 -16 0 -1 11 -3 25 -4 14 -1 41 -6 62 -9 25 -5 39 -3 44 6 5 7 36 85 70
173 41 108 58 162 50 166 -10 6 -69 17 -136 25 -14 1 -49 7 -79 13 -29 6 -59
11 -65 11 -6 0 -41 -79 -78 -175z"/>
<path d="M3452 2546 c-5 -6 -19 -40 -32 -76 -13 -36 -28 -76 -33 -90 -6 -14
-11 -28 -11 -31 -1 -8 -78 -137 -140 -234 -91 -144 -136 -219 -136 -229 0 -3
12 -6 28 -6 15 0 55 -6 89 -13 l61 -13 37 40 c21 23 97 103 169 179 178 188
186 198 206 254 10 26 28 76 41 110 12 35 21 65 18 67 -2 3 -18 7 -34 10 -17
2 -30 5 -30 6 0 1 -11 3 -25 4 -28 3 -95 14 -157 25 -29 6 -46 5 -51 -3z"/>
</g>
</svg>
