<svg xmlns="http://www.w3.org/2000/svg" xmlns:xlink="http://www.w3.org/1999/xlink" preserveAspectRatio="xMidYMid" width="804.94" height="648.841" viewBox="0 0 804.94 648.841">
  <defs>
    <style>
      .cls-1 {
        fill: rgb(31, 102, 16);
        fill-rule: evenodd;
      }
    </style>
  </defs>
  <path d="M736.578,400.781 C736.578,445.312 744.000,499.609 744.000,556.250 C744.000,638.281 679.547,648.828 636.578,648.828 L636.578,626.562 C690.875,618.359 697.516,592.578 697.516,558.984 C697.516,511.328 688.922,456.640 688.922,410.937 C688.922,371.093 705.719,337.109 749.078,325.390 L749.078,322.656 C706.109,312.500 688.922,276.953 688.922,237.890 C688.922,191.406 697.516,136.328 697.516,89.062 C697.516,55.859 690.484,28.906 636.578,21.484 L636.578,-0.000 C680.719,-0.000 744.000,8.594 744.000,92.578 C744.000,148.437 736.578,203.515 736.578,246.484 C736.578,273.828 738.922,308.203 804.938,312.500 L804.938,336.328 C738.922,340.625 736.578,375.000 736.578,400.781 ZM408.828,387.721 L395.488,422.988 L365.271,417.921 L378.490,382.634 L408.828,387.721 ZM327.762,541.223 L309.342,538.134 L336.216,495.235 L345.330,471.142 L375.668,476.229 L366.554,500.322 L327.762,541.223 ZM660.754,52.936 L625.618,250.576 L591.946,257.164 C592.427,253.264 592.678,249.604 592.678,246.184 C592.678,242.776 592.678,239.356 592.678,235.936 C592.678,210.568 588.527,188.482 580.234,169.690 C571.931,150.910 560.470,135.172 545.830,122.476 C531.190,109.792 513.622,100.276 493.126,93.928 C472.630,87.592 449.938,84.412 425.050,84.412 C371.855,84.412 332.327,94.180 306.466,113.692 C280.595,133.216 267.670,159.808 267.670,193.480 C267.670,208.612 272.669,220.930 282.676,230.446 C292.673,239.962 305.975,247.900 322.570,254.236 C339.155,260.584 357.947,265.948 378.934,270.340 C399.911,274.732 421.390,279.490 443.350,284.614 C465.310,289.738 486.779,295.846 507.766,302.914 C528.743,309.994 547.535,319.384 564.130,331.096 C580.715,342.808 594.017,357.574 604.024,375.382 C614.021,393.202 619.030,415.276 619.030,441.628 C619.030,468.472 613.289,492.262 601.828,512.998 C590.357,533.746 574.493,551.188 554.248,565.336 C533.993,579.496 510.203,590.224 482.878,597.544 C455.543,604.864 426.263,608.524 395.038,608.524 C321.347,608.524 265.474,593.152 227.410,562.408 C220.571,557.044 214.234,554.356 208.378,554.356 C195.683,555.340 185.435,562.660 177.634,576.316 L165.922,596.812 L133.714,596.812 L170.314,388.192 L203.254,383.800 C202.763,386.751 202.522,389.691 202.522,392.630 C202.522,395.569 202.522,398.257 202.522,400.705 C202.522,424.220 206.423,446.032 214.234,466.116 C222.035,486.212 233.381,503.482 248.272,517.939 C263.153,532.396 281.578,543.788 303.538,552.114 C325.498,560.441 350.386,564.604 378.202,564.604 C404.063,564.604 427.853,562.282 449.572,557.639 C471.281,552.995 490.073,546.018 505.936,536.720 C521.789,527.421 534.118,515.675 542.902,501.481 C551.686,487.287 556.078,470.405 556.078,450.824 C556.078,433.210 551.069,419.142 541.072,408.620 C531.065,398.097 517.889,389.416 501.544,382.565 C485.189,375.714 466.649,370.213 445.912,366.049 C425.165,361.886 403.937,357.483 382.228,352.839 C360.509,348.195 339.281,342.568 318.544,335.957 C297.797,329.346 279.257,320.299 262.912,308.793 C246.557,297.287 233.381,282.727 223.384,265.113 C213.377,247.500 208.378,225.231 208.378,198.318 C208.378,178.737 212.038,159.534 219.358,140.696 C226.678,121.859 238.871,104.977 255.958,90.051 C273.035,75.125 295.361,63.138 322.936,54.080 C350.501,45.021 384.539,40.492 425.050,40.492 C458.722,40.492 486.904,44.221 509.596,51.655 C532.288,59.090 552.418,67.771 569.986,77.687 C574.859,80.169 579.251,82.273 583.162,84.012 C587.063,85.750 591.214,86.608 595.606,86.608 C605.363,86.608 614.147,81.976 621.958,72.700 L638.794,52.936 L660.754,52.936 ZM104.297,89.062 C104.297,136.328 116.016,187.109 116.016,237.890 C116.016,277.734 97.656,312.500 55.078,322.656 L55.078,325.390 C97.656,336.328 116.016,371.093 116.016,410.937 C116.016,464.062 104.297,510.547 104.297,557.422 C104.297,591.015 110.937,618.359 166.797,626.562 L166.797,648.828 C124.609,648.828 60.937,641.015 60.937,556.250 C60.937,500.390 66.797,445.312 66.797,400.000 C66.797,374.218 64.453,340.625 -0.000,336.328 L-0.000,312.500 C64.453,308.203 66.797,274.609 66.797,248.047 C66.797,201.562 60.937,144.140 60.937,94.922 C60.937,8.594 124.609,-0.000 166.797,-0.000 L166.797,21.484 C110.937,28.906 104.297,56.250 104.297,89.062 Z" class="cls-1"/>
</svg>
